<svg xmlns="http://www.w3.org/2000/svg" width="38" height="14" viewBox="0 0 38 14">
              <path d="M7.2 1.4c-.5.6-1.3 1-2 .94-.1-.74.27-1.52.74-2.02.5-.56 1.3-.96 1.96-.98.08.76-.2 1.5-.7 2.06zm.72 1.14c-1.12-.06-2.08.62-2.62.62-.54 0-1.36-.6-2.26-.58C1.86 2.6.9 3.24.4 4.24c-1.04 2.06-.28 5.1.74 6.78.5.8 1.1 1.68 1.9 1.66.76-.02.98-.5 1.92-.5.94 0 1.14.5 1.94.48.82 0 1.36-.82 1.86-1.62.58-.92.82-1.82.84-1.86C9.56 9.12 8 8.22 8 6.36c0-1.54 1.26-2.28 1.32-2.34-.72-1.04-1.84-1.16-2.4-1.48z" fill="white"></path>
              <text x="12" y="11" font-family="-apple-system,BlinkMacSystemFont,sans-serif" font-size="8" font-weight="600" fill="white">Pay</text>
            </svg>